<?xml version="1.0" encoding="UTF-8"?>
<svg width="50px" height="50px" viewBox="0 0 50 50" version="1.1" xmlns="http://www.w3.org/2000/svg" xmlns:xlink="http://www.w3.org/1999/xlink">
    <!-- Generator: Sketch 53.2 (72643) - https://sketchapp.com -->
    <title>etherscan-logo-circle</title>
    <desc>Created with Sketch.</desc>
    <g id="Page-1" stroke="none" stroke-width="1" fill="none" fill-rule="evenodd">
        <g id="etherscan-logo-circle" fill="#000000" fill-rule="nonzero">
            <path d="M10.4415379,23.7560654 C10.4414408,23.1932884 10.6670866,22.653673 11.0685452,22.2566234 C11.4700039,21.8595738 12.0141758,21.6378261 12.5806484,21.6404479 L16.1270773,21.6520012 C17.3046029,21.6520012 18.2591759,22.6003365 18.2591759,23.7701672 L18.2591759,37.0928486 C18.6586772,36.9752766 19.1710513,36.849889 19.7323369,36.7190646 C20.5346986,36.5314649 21.1018161,35.8202537 21.1020311,35.0013572 L21.1020311,18.4756867 C21.1019858,17.913824 21.3266095,17.3749559 21.7264876,16.9776271 C22.1263658,16.5802983 22.6687424,16.357056 23.2343008,16.357011 L26.7877416,16.357011 C27.9651889,16.3571986 28.9196514,17.3054239 28.9198402,18.475177 L28.9198402,33.8137435 C28.9198402,33.8137435 29.809141,33.4559302 30.6760382,33.0925102 C31.3341158,32.8159425 31.7619349,32.1752295 31.7625244,31.4653605 L31.7625244,13.1793372 C31.762479,12.6175803 31.9870722,12.0788161 32.3868911,11.681578 C32.78671,11.2843399 33.329,11.0611712 33.894452,11.0611712 L37.4478927,11.0611712 C38.625446,11.0611712 39.580068,12.009479 39.5801624,13.1793372 L39.5801624,28.2368861 C42.6609056,26.0188178 45.7832064,23.3508495 48.2609353,20.1429333 C48.9910929,19.1971357 49.195616,17.9507756 48.805632,16.8235614 C45.370652,6.8783199 36.0194442,0.147137542 25.4368594,0.00226170712 C11.5092119,-0.183610885 -0.00124764161,11.1112923 0.000120513453,24.9496257 C-0.0135547325,29.3285285 1.13684519,33.6333855 3.33499848,37.4289144 C3.95389434,38.4887946 5.13476768,39.0965411 6.36323869,38.9874238 C7.03551589,38.9286378 7.87248475,38.8455558 8.86747552,38.7295129 C9.76401272,38.6281548 10.4414879,37.8749315 10.442393,36.9785047 L10.442393,23.7560654" id="Path_1"></path>
            <path d="M10.0001715,45.3444409 C17.6612382,50.7287269 27.8018506,51.5038685 36.2440348,47.350504 C44.6862191,43.1971396 50.0015153,34.8180391 49.9999997,25.6654266 C49.9999997,25.1050915 49.9730669,24.5510542 49.9342974,24 C40.7322029,37.2584461 23.7415566,43.4567697 10,45.3449381" id="Path_2"></path>
        </g>
    </g>
</svg>